<svg xmlns="http://www.w3.org/2000/svg" width="17.782" height="8.292" viewBox="0 0 17.782 8.292"><defs><style>.a{fill:#46c052;}</style></defs><path class="a" d="M1172.822,234.306a.619.619,0,0,1,.845-.045l4.357,3.638,5.448-4.489-2.788-.211a.687.687,0,0,1,.045-1.367.275.275,0,0,1,.047,0l4.462.338a.637.637,0,0,1,.443.235.714.714,0,0,1,.154.5l-.319,4.391a.659.659,0,0,1-.692.629.674.674,0,0,1-.594-.735l.207-2.846-6.019,4.957a.613.613,0,0,1-.795,0l-4.313-3.6-4.164,4.233a.62.62,0,0,1-.912-.021.712.712,0,0,1,.019-.965Z" transform="translate(-1168.056 -231.833)"/></svg>