<svg xmlns="http://www.w3.org/2000/svg" width="18" height="8.011" viewBox="0 0 18 8.011"><defs><style>.a{fill:#c74b44;}</style></defs><path class="a" d="M1172.818,282.621a.649.649,0,0,0,.856.043l4.411-3.514,5.515,4.336-2.823.2a.661.661,0,0,0,.046,1.32.293.293,0,0,0,.047,0l4.517-.326a.655.655,0,0,0,.448-.227.668.668,0,0,0,.156-.481l-.323-4.242a.653.653,0,1,0-1.3.1l.209,2.749-6.093-4.788a.644.644,0,0,0-.8,0l-4.366,3.478-4.215-4.089a.648.648,0,0,0-.923.02.665.665,0,0,0,.019.933Z" transform="translate(-1167.993 -276.999)"/></svg>